<svg role="img" viewBox="0 0 24 24" xmlns="http://www.w3.org/2000/svg">
  <title>Data Structures &amp; Algorithms</title>
  <path fill="#8B5CF6" d="M12 2a3 3 0 0 0-2.82 2H6.5c-1.38 0-2.5 1.12-2.5 2.5v1.68A3 3 0 0 0 2 11a3 3 0 0 0 2 2.82v3.68A3 3 0 0 0 2 20a3 3 0 0 0 3 3 3 3 0 0 0 2.82-2h8.36a3 3 0 0 0 2.82 2 3 3 0 0 0 3-3 3 3 0 0 0-2-2.82v-3.68a3 3 0 0 0 2-2.82 3 3 0 0 0-3-3h-2.68A3 3 0 0 0 12 2zm0 2a1 1 0 1 1 0 2 1 1 0 0 1 0-2zm-6.5 2h2.68A3 3 0 0 0 11 8.82V10h2V8.82A3 3 0 0 0 15.82 6H18.5c.28 0 .5.22.5.5V8h-2a3 3 0 0 0-2.82 2H9.82A3 3 0 0 0 7 8H5V6.5c0-.28.22-.5.5-.5zM4 10a1 1 0 1 1 0 2 1 1 0 0 1 0-2zm16 0a1 1 0 1 1 0 2 1 1 0 0 1 0-2zm-11 3h6v2.18A3 3 0 0 0 13.82 17h-3.64A3 3 0 0 0 9 15.18V13zm-5 6a1 1 0 1 1 0 2 1 1 0 0 1 0-2zm16 0a1 1 0 1 1 0 2 1 1 0 0 1 0-2z" />
</svg>
